<svg xmlns="http://www.w3.org/2000/svg" viewBox="0 0 64 64" width="64" height="64">
  <defs>
    <linearGradient id="grad1" x1="0%" y1="0%" x2="100%" y2="100%">
      <stop offset="0%" style="stop-color:#059669;stop-opacity:1" />
      <stop offset="100%" style="stop-color:#047857;stop-opacity:1" />
    </linearGradient>
  </defs>
  
  <!-- Background circle -->
  <circle cx="32" cy="32" r="30" fill="url(#grad1)" stroke="#065f46" stroke-width="2"/>
  
  <!-- Islamic geometric pattern -->
  <g fill="white" opacity="0.9">
    <!-- Central star -->
    <path d="M32 12 L36 24 L48 24 L39 32 L42 44 L32 38 L22 44 L25 32 L16 24 L28 24 Z"/>
    
    <!-- Decorative crescents -->
    <path d="M20 20 Q16 16 20 12 Q24 16 20 20" fill="none" stroke="white" stroke-width="2"/>
    <path d="M44 20 Q48 16 44 12 Q40 16 44 20" fill="none" stroke="white" stroke-width="2"/>
    <path d="M20 44 Q16 48 20 52 Q24 48 20 44" fill="none" stroke="white" stroke-width="2"/>
    <path d="M44 44 Q48 48 44 52 Q40 48 44 44" fill="none" stroke="white" stroke-width="2"/>
  </g>
  
  <!-- Arabic letter "ع" stylized -->
  <text x="32" y="40" font-family="serif" font-size="16" fill="white" text-anchor="middle" font-weight="bold">ع</text>
</svg>
